<?xml version="1.0" encoding="utf-8"?>
<!-- Generator: Adobe Illustrator 25.0.1, SVG Export Plug-In . SVG Version: 6.00 Build 0)  -->
<svg version="1.1" id="Capa_1" xmlns="http://www.w3.org/2000/svg" xmlns:xlink="http://www.w3.org/1999/xlink" x="0px" y="0px"
	 viewBox="0 0 194.7 104.6" style="enable-background:new 0 0 194.7 104.6;" xml:space="preserve">
<g>
	<path d="M10.8,39.5V13h4.9v26.5H10.8z"/>
	<path d="M20,39.5V17h4.5v2.3c0.3-0.6,0.8-1.2,1.6-1.7c0.7-0.5,1.7-0.7,2.8-0.7c2.3,0,3.8,0.9,4.5,2.7c0.4-0.7,0.9-1.4,1.7-1.9
		s1.7-0.8,2.9-0.8c1.6,0,2.9,0.5,3.7,1.4c0.9,1,1.3,2.2,1.3,3.8v17.4h-4.8V23.2c0-1.4-0.7-2.2-2.1-2.2c-0.6,0-1.2,0.2-1.6,0.6
		s-0.6,0.9-0.6,1.6v16.3h-4.8V23.2c0-1.4-0.7-2.2-2.1-2.2c-0.6,0-1.2,0.2-1.6,0.6s-0.6,0.9-0.6,1.6v16.3H20z"/>
	<path d="M61,33.6c0,1.9-0.5,3.4-1.6,4.4s-2.5,1.5-4.2,1.5c-1.6,0-2.8-0.4-3.5-1.1v7.3h-4.8V17h4.8v1.7c0.3-0.5,0.7-0.9,1.4-1.3
		s1.5-0.6,2.5-0.6c1.7,0,3,0.5,4,1.5c0.9,1,1.4,2.4,1.4,4.1C61,22.4,61,33.6,61,33.6z M51.7,33.4c0,0.7,0.2,1.2,0.6,1.5
		c0.4,0.3,1,0.5,1.6,0.5c1.5,0,2.2-0.7,2.2-2V23.2c0-1.4-0.7-2.1-2.2-2.1c-0.7,0-1.2,0.2-1.6,0.5c-0.4,0.3-0.6,0.9-0.6,1.5V33.4z"/>
	<path d="M73.9,21.8c-0.4-0.1-1-0.2-1.6-0.2c-0.9,0-1.6,0.3-2.1,0.8c-0.5,0.6-0.8,1.3-0.8,2.3v14.8h-4.8V17h4.5v3
		c0.1-0.8,0.5-1.6,1.1-2.2s1.6-1,2.7-1c0.3,0,0.5,0,0.8,0.1v4.9H73.9z"/>
	<path d="M80.3,33.5c0,0.7,0.2,1.2,0.6,1.6c0.4,0.4,1,0.6,1.8,0.6s1.4-0.2,1.8-0.6c0.4-0.4,0.6-0.9,0.6-1.6v-1.7h4.7v1.6
		c0,2.1-0.6,3.7-1.9,4.8s-3,1.7-5.2,1.7s-3.9-0.6-5.2-1.7c-1.3-1.1-1.9-2.7-1.9-4.8V23.1c0-2.1,0.6-3.7,1.9-4.8s3-1.7,5.2-1.7
		s4,0.6,5.2,1.7c1.3,1.1,1.9,2.7,1.9,4.8v6.5h-9.5V33.5z M85.1,23c0-1.4-0.8-2.1-2.4-2.1s-2.4,0.7-2.4,2.1v2.9h4.8V23z"/>
	<path d="M102.9,27.6c2.3,1.1,3.5,2.8,3.5,5.1v1c0,2.1-0.6,3.6-1.8,4.6c-1.2,1-2.9,1.6-5.2,1.6c-2.2,0-3.9-0.5-5.1-1.6
		s-1.8-2.6-1.8-4.7v-1.3h4.7v1.4c0,1.3,0.7,2,2.2,2s2.3-0.6,2.3-1.9v-0.7c0-0.9-0.5-1.6-1.4-2.1l-4.2-2.2c-2.3-1.2-3.4-2.9-3.4-5.2
		v-0.7c0-2,0.6-3.6,1.8-4.6s2.9-1.6,5.1-1.6s3.9,0.5,5,1.6c1.2,1.1,1.8,2.6,1.8,4.6v1h-4.7v-1.2c0-1.4-0.7-2-2.1-2s-2.1,0.7-2.1,2
		v0.6c0,0.9,0.5,1.6,1.5,2L102.9,27.6z"/>
	<path d="M114.4,13.2c0,1.7-0.9,2.6-2.7,2.6c-1.9,0-2.8-0.9-2.8-2.6c0-1.8,0.9-2.7,2.8-2.7C113.5,10.5,114.4,11.4,114.4,13.2z
		 M109.3,17.5h4.8v22h-4.8V17.5z"/>
	<path d="M131.9,33.4c0,2.1-0.6,3.7-1.9,4.8c-1.3,1.1-3,1.7-5.2,1.7s-3.9-0.6-5.2-1.7c-1.3-1.1-1.9-2.7-1.9-4.8V23.1
		c0-2.1,0.6-3.7,1.9-4.8s3-1.7,5.2-1.7s3.9,0.6,5.2,1.7s1.9,2.7,1.9,4.8V33.4z M127.1,23.1c0-1.4-0.8-2.2-2.4-2.2
		c-1.5,0-2.3,0.7-2.3,2.2v10.3c0,1.4,0.8,2.1,2.3,2.1c1.6,0,2.4-0.7,2.4-2.1V23.1z"/>
	<path d="M135.5,39.5V17h4.5v2.3c0.3-0.6,0.8-1.2,1.6-1.7s1.7-0.7,2.8-0.7c1.6,0,2.9,0.5,3.8,1.4c0.9,1,1.4,2.2,1.4,3.8v17.4h-4.9
		V23.2c0-0.7-0.2-1.2-0.6-1.6c-0.4-0.4-0.9-0.6-1.6-0.6s-1.2,0.2-1.7,0.6s-0.7,0.9-0.7,1.6v16.3H135.5z"/>
	<path d="M157.8,33.5c0,0.7,0.2,1.2,0.6,1.6s1,0.6,1.8,0.6s1.4-0.2,1.8-0.6s0.6-0.9,0.6-1.6v-1.7h4.7v1.6c0,2.1-0.6,3.7-1.9,4.8
		c-1.3,1.1-3,1.7-5.2,1.7s-3.9-0.6-5.2-1.7c-1.3-1.1-1.9-2.7-1.9-4.8V23.1c0-2.1,0.6-3.7,1.9-4.8c1.3-1.1,3-1.7,5.2-1.7
		s4,0.6,5.2,1.7c1.3,1.1,1.9,2.7,1.9,4.8v6.5h-9.5L157.8,33.5L157.8,33.5z M162.6,23c0-1.4-0.8-2.1-2.4-2.1c-1.6,0-2.4,0.7-2.4,2.1
		v2.9h4.8L162.6,23L162.6,23z"/>
	<path d="M180.4,27.6c2.3,1.1,3.5,2.8,3.5,5.1v1c0,2.1-0.6,3.6-1.8,4.6s-2.9,1.6-5.2,1.6c-2.2,0-3.9-0.5-5.1-1.6s-1.8-2.6-1.8-4.7
		v-1.3h4.7v1.4c0,1.3,0.7,2,2.2,2s2.3-0.6,2.3-1.9v-0.7c0-0.9-0.5-1.6-1.4-2.1l-4.2-2.2c-2.3-1.2-3.4-2.9-3.4-5.2v-0.7
		c0-2,0.6-3.6,1.8-4.6c1.2-1.1,2.9-1.6,5.1-1.6c2.2,0,3.9,0.5,5,1.6s1.8,2.6,1.8,4.6v1H179v-1.2c0-1.4-0.7-2-2.1-2
		c-1.4,0-2.1,0.7-2.1,2v0.6c0,0.9,0.5,1.6,1.5,2L180.4,27.6z"/>
	<path d="M19.8,64.1c0-2.4,0.6-4.3,1.9-5.7s3.1-2.1,5.3-2.1c1.3,0,2.5,0.2,3.4,0.7c1,0.5,1.6,0.9,2,1.3c0.4,0.4,0.6,0.9,0.8,1.3
		V48.1h2.7v38h-2.6V83c-0.2,0.4-0.5,0.9-0.8,1.3c-0.4,0.4-1,0.9-2,1.3c-1,0.5-2.1,0.7-3.4,0.7c-2.3,0-4.1-0.7-5.3-2.1
		c-1.3-1.4-1.9-3.3-1.9-5.7V64.1H19.8z M33.3,64c0-1.6-0.5-2.9-1.6-3.8c-1.1-0.9-2.4-1.4-4.1-1.4c-3.4,0-5.2,1.8-5.2,5.3v14.4
		c0,3.6,1.7,5.3,5.2,5.3c1.6,0,3-0.5,4.1-1.4s1.6-2.2,1.6-3.8V64z"/>
	<path d="M47.1,49.9c0,1.2-0.6,1.8-1.8,1.8s-1.8-0.6-1.8-1.8s0.6-1.8,1.8-1.8S47.1,48.7,47.1,49.9z M43.9,56.1h2.7v30h-2.7V56.1z"/>
	<path d="M71.2,56.9c-1.1,0-2,0.3-2.7,1c1.2,1.3,1.8,3.1,1.8,5.3v4.2c0,2.4-0.7,4.2-2.1,5.6s-3.6,2-6.4,2c-2.3,0-3.5,1.1-3.5,3.3
		c0,1,0.3,1.7,0.9,2.1s1.6,0.7,3,0.7h3.1c4.8,0,7.1,2,7.1,6.1v0.5c0,4.3-3.1,6.5-9.3,6.5H61c-3.4,0-6-0.5-7.9-1.5V90
		c2.2,1.2,4.9,1.8,7.9,1.8h2.1c4.4,0,6.7-1.3,6.7-4v-0.6c0-1.2-0.3-2.2-0.9-2.8s-1.8-0.9-3.5-0.9h-3.2c-2,0-3.5-0.4-4.6-1.2
		c-1.1-0.8-1.7-1.9-1.7-3.4V78c0-0.9,0.2-1.6,0.7-2.2s1.1-1,1.9-1.2c-3.5-0.9-5.3-3.3-5.3-7.3v-4.2c0-2.4,0.7-4.2,2.1-5.6
		s3.6-2,6.4-2c2.4,0,4.3,0.5,5.8,1.5c0.6-2,2.2-2.9,4.6-2.9H73v2.7L71.2,56.9L71.2,56.9z M67.7,63.2c0-1.7-0.5-3-1.4-3.9
		S63.9,58,61.8,58s-3.6,0.4-4.5,1.3c-0.9,0.9-1.4,2.2-1.4,3.9v4.2c0,1.7,0.5,3,1.4,3.9s2.4,1.3,4.5,1.3s3.6-0.4,4.5-1.3
		s1.4-2.2,1.4-3.9V63.2z"/>
	<path d="M80.7,49.9c0,1.2-0.6,1.8-1.8,1.8s-1.8-0.6-1.8-1.8s0.6-1.8,1.8-1.8S80.7,48.7,80.7,49.9z M77.5,56.1h2.7v30h-2.7V56.1z"/>
	<path d="M84.7,56.1h3.5l0.6-6.1h2v6.1h6.8v2.4h-6.8v20.8c0,1.6,0.3,2.8,0.9,3.5s1.6,1,3,1c1.2,0,2.4-0.2,3.4-0.7v2.6
		c-0.9,0.4-2,0.5-3.4,0.5c-4.4,0-6.6-2.3-6.6-6.9V58.5h-3.5L84.7,56.1L84.7,56.1z"/>
	<path d="M101.5,63.3c0-2.4,0.7-4.3,2-5.7c1.4-1.4,3.4-2.1,6.2-2.1s4.9,0.7,6.2,2.1c1.4,1.4,2,3.3,2,5.7v22.8h-2.6v-3.4
		c-0.9,2.5-3.1,3.7-6.6,3.7c-5.1,0-7.7-2.4-7.7-7.2v-1.4c0-3.5,2.1-5.9,6.3-7.1l8-2.3v-5c0-1.8-0.4-3.1-1.3-4s-2.3-1.3-4.3-1.3
		s-3.5,0.4-4.3,1.3c-0.9,0.9-1.3,2.2-1.3,4v1.5h-2.7v-1.6H101.5z M103.7,79.3c0,3.2,1.7,4.9,5.2,4.9c2.2,0,3.9-0.5,4.9-1.6
		s1.5-2.4,1.5-4.1v-7.7l-7.1,2.1c-1.7,0.5-2.8,1.1-3.5,1.9s-1,1.8-1,3V79.3z"/>
	<path d="M125.8,48.1h2.7v38h-2.7V48.1z"/>
	<path d="M135.9,63.8c0-2.5,0.7-4.4,2.1-5.9c1.4-1.5,3.5-2.2,6.3-2.2s4.9,0.7,6.3,2.2c1.4,1.5,2.1,3.5,2.1,5.9v8.1h-14v6.7
		c0,3.8,1.9,5.8,5.7,5.8s5.7-1.9,5.7-5.8v-1.8h2.7v1.8c0,2.5-0.7,4.4-2.1,5.9s-3.5,2.2-6.3,2.2s-4.9-0.7-6.3-2.2
		c-1.4-1.5-2.1-3.5-2.1-5.9L135.9,63.8L135.9,63.8z M149.9,69.5v-5.7c0-3.8-1.9-5.8-5.7-5.8s-5.7,1.9-5.7,5.8v5.7H149.9z"/>
	<path d="M169.6,71.2c3.4,1.4,5.1,3.7,5.1,6.7v1.2c0,5.1-2.8,7.6-8.3,7.6c-5.4,0-8-2.6-8-7.7v-1.2h2.7V79c0,1.8,0.4,3.2,1.2,4
		c0.8,0.9,2.2,1.3,4.2,1.3s3.5-0.4,4.3-1.3c0.9-0.9,1.3-2.2,1.3-3.9v-1c0-1.1-0.3-2-0.8-2.7s-1.5-1.4-2.9-1.9l-5-2.1
		c-3.1-1.3-4.7-3.7-4.7-7v-1c0-5.1,2.6-7.7,7.9-7.7c5.3,0,7.9,2.6,7.9,7.7v1.3h-2.7v-1.3c0-1.8-0.4-3.2-1.1-4s-2.1-1.3-4.1-1.3
		s-3.4,0.4-4.2,1.3c-0.8,0.9-1.1,2.2-1.1,4V64c0,1.4,0.3,2.4,0.8,3.2s1.4,1.4,2.7,2L169.6,71.2z"/>
</g>
<path d="M-221.6-66.4v-38h7v38H-221.6z"/>
<path d="M-210.4-88.5c0-2.4,0.6-4.3,1.9-5.7c1.3-1.4,3.1-2.1,5.3-2.1c1.3,0,2.5,0.2,3.4,0.7c1,0.5,1.6,0.9,2,1.3
	c0.4,0.4,0.6,0.9,0.8,1.3v-11.5h2.7v38h-2.6v-3.1c-0.2,0.4-0.5,0.9-0.8,1.3c-0.4,0.4-1,0.9-2,1.3c-1,0.5-2.1,0.7-3.4,0.7
	c-2.3,0-4.1-0.7-5.3-2.1c-1.3-1.4-1.9-3.3-1.9-5.7v-14.4H-210.4z M-196.9-88.6c0-1.6-0.5-2.9-1.6-3.8c-1.1-0.9-2.4-1.4-4.1-1.4
	c-3.4,0-5.2,1.8-5.2,5.3v14.4c0,3.6,1.7,5.3,5.2,5.3c1.6,0,3-0.5,4.1-1.4c1.1-0.9,1.6-2.2,1.6-3.8V-88.6z"/>
</svg>
