<?xml version="1.0" encoding="utf-8"?>
<!-- Generator: Adobe Illustrator 25.0.1, SVG Export Plug-In . SVG Version: 6.00 Build 0)  -->
<svg version="1.1" id="Capa_1" xmlns="http://www.w3.org/2000/svg" xmlns:xlink="http://www.w3.org/1999/xlink" x="0px" y="0px"
	 viewBox="0 0 193.9 64.8" style="enable-background:new 0 0 193.9 64.8;" xml:space="preserve">
<style type="text/css">
	.st0{fill:#FFFFFF;}
</style>
<g>
	<path class="st0" d="M34.6,23.2V4.1h3.6v19.1H34.6z"/>
	<path class="st0" d="M41.1,23.2V6.9h3.3v1.6c0.2-0.5,0.6-0.9,1.1-1.2c0.5-0.4,1.2-0.5,2-0.5c1.6,0,2.7,0.6,3.3,1.9
		c0.3-0.5,0.7-1,1.2-1.4c0.6-0.4,1.3-0.6,2.1-0.6c1.2,0,2.1,0.3,2.7,1c0.6,0.7,0.9,1.6,0.9,2.8v12.6h-3.5V11.4c0-1-0.5-1.6-1.5-1.6
		c-0.5,0-0.8,0.1-1.1,0.4s-0.4,0.7-0.4,1.1v11.8h-3.5V11.4c0-1-0.5-1.6-1.5-1.6c-0.5,0-0.8,0.1-1.1,0.4s-0.4,0.7-0.4,1.1v11.8H41.1z
		"/>
	<path class="st0" d="M70.8,18.9c0,1.4-0.4,2.4-1.2,3.2c-0.8,0.7-1.8,1.1-3,1.1c-1.2,0-2-0.3-2.6-0.8v5.3h-3.5V6.9H64v1.2
		c0.2-0.3,0.5-0.6,1-0.9c0.5-0.3,1.1-0.4,1.8-0.4c1.2,0,2.2,0.4,2.9,1.1c0.7,0.7,1,1.7,1,3V18.9z M64,18.7c0,0.5,0.2,0.8,0.5,1.1
		c0.3,0.3,0.7,0.4,1.2,0.4c1.1,0,1.6-0.5,1.6-1.5v-7.3c0-1-0.5-1.5-1.6-1.5c-0.5,0-0.9,0.1-1.2,0.4c-0.3,0.3-0.5,0.6-0.5,1.1V18.7z"
		/>
	<path class="st0" d="M80,10.4c-0.3-0.1-0.7-0.1-1.1-0.1c-0.6,0-1.1,0.2-1.5,0.6c-0.4,0.4-0.6,0.9-0.6,1.7v10.7h-3.5V6.9h3.3v2.2
		C76.7,8.6,77,8,77.5,7.5c0.5-0.5,1.1-0.7,2-0.7c0.2,0,0.4,0,0.6,0.1V10.4z"/>
	<path class="st0" d="M84.6,18.8c0,0.5,0.2,0.9,0.5,1.2c0.3,0.3,0.7,0.4,1.3,0.4c0.6,0,1-0.1,1.3-0.4c0.3-0.3,0.5-0.7,0.5-1.2v-1.2
		h3.4v1.2c0,1.5-0.5,2.7-1.4,3.5c-0.9,0.8-2.2,1.2-3.8,1.2c-1.6,0-2.8-0.4-3.7-1.2c-0.9-0.8-1.4-2-1.4-3.5v-7.4
		c0-1.5,0.5-2.7,1.4-3.5c0.9-0.8,2.2-1.2,3.7-1.2c1.6,0,2.8,0.4,3.8,1.2c0.9,0.8,1.4,2,1.4,3.5v4.7h-6.9V18.8z M88.1,11.3
		c0-1-0.6-1.5-1.8-1.5c-1.1,0-1.7,0.5-1.7,1.5v2.1h3.5V11.3z"/>
	<path class="st0" d="M100.9,14.6c1.7,0.8,2.5,2,2.5,3.7V19c0,1.5-0.4,2.6-1.3,3.4c-0.9,0.8-2.1,1.1-3.7,1.1c-1.6,0-2.8-0.4-3.7-1.1
		c-0.9-0.8-1.3-1.9-1.3-3.4v-1h3.4v1c0,0.9,0.5,1.4,1.6,1.4c1.1,0,1.6-0.5,1.6-1.4v-0.5c0-0.7-0.3-1.2-1-1.5l-3.1-1.6
		c-1.6-0.9-2.5-2.1-2.5-3.8v-0.5c0-1.5,0.4-2.6,1.3-3.4s2.1-1.2,3.7-1.2c1.6,0,2.8,0.4,3.6,1.2c0.9,0.8,1.3,1.9,1.3,3.4v0.8h-3.4
		v-0.8c0-1-0.5-1.5-1.5-1.5c-1,0-1.5,0.5-1.5,1.5v0.4c0,0.6,0.4,1.1,1.1,1.5L100.9,14.6z"/>
	<path class="st0" d="M109.3,4.2c0,1.3-0.7,1.9-2,1.9c-1.3,0-2-0.6-2-1.9c0-1.3,0.7-1.9,2-1.9C108.6,2.2,109.3,2.9,109.3,4.2z
		 M105.5,7.3h3.5v15.9h-3.5V7.3z"/>
	<path class="st0" d="M121.9,18.8c0,1.5-0.5,2.7-1.4,3.5c-0.9,0.8-2.2,1.2-3.7,1.2c-1.6,0-2.8-0.4-3.7-1.2c-0.9-0.8-1.4-2-1.4-3.5
		v-7.4c0-1.5,0.5-2.7,1.4-3.5c0.9-0.8,2.2-1.2,3.7-1.2c1.6,0,2.8,0.4,3.7,1.2c0.9,0.8,1.4,2,1.4,3.5V18.8z M118.5,11.4
		c0-1-0.6-1.6-1.7-1.6c-1.1,0-1.7,0.5-1.7,1.6v7.4c0,1,0.6,1.5,1.7,1.5c1.1,0,1.7-0.5,1.7-1.5V11.4z"/>
	<path class="st0" d="M124.5,23.2V6.9h3.3v1.6c0.2-0.5,0.6-0.9,1.2-1.2c0.5-0.4,1.2-0.5,2-0.5c1.2,0,2.1,0.3,2.7,1
		c0.7,0.7,1,1.6,1,2.8v12.6h-3.5V11.4c0-0.5-0.1-0.9-0.4-1.2c-0.3-0.3-0.7-0.4-1.1-0.4c-0.5,0-0.9,0.1-1.2,0.4
		c-0.3,0.3-0.5,0.7-0.5,1.1v11.8H124.5z"/>
	<path class="st0" d="M140.6,18.8c0,0.5,0.2,0.9,0.5,1.2c0.3,0.3,0.7,0.4,1.3,0.4c0.6,0,1-0.1,1.3-0.4c0.3-0.3,0.5-0.7,0.5-1.2v-1.2
		h3.4v1.2c0,1.5-0.5,2.7-1.4,3.5c-0.9,0.8-2.2,1.2-3.8,1.2c-1.6,0-2.8-0.4-3.7-1.2c-0.9-0.8-1.4-2-1.4-3.5v-7.4
		c0-1.5,0.5-2.7,1.4-3.5c0.9-0.8,2.2-1.2,3.7-1.2c1.6,0,2.8,0.4,3.8,1.2c0.9,0.8,1.4,2,1.4,3.5v4.7h-6.9V18.8z M144,11.3
		c0-1-0.6-1.5-1.8-1.5c-1.1,0-1.7,0.5-1.7,1.5v2.1h3.5V11.3z"/>
	<path class="st0" d="M156.9,14.6c1.7,0.8,2.5,2,2.5,3.7V19c0,1.5-0.4,2.6-1.3,3.4c-0.9,0.8-2.1,1.1-3.7,1.1c-1.6,0-2.8-0.4-3.7-1.1
		c-0.9-0.8-1.3-1.9-1.3-3.4v-1h3.4v1c0,0.9,0.5,1.4,1.6,1.4c1.1,0,1.6-0.5,1.6-1.4v-0.5c0-0.7-0.3-1.2-1-1.5l-3.1-1.6
		c-1.6-0.9-2.5-2.1-2.5-3.8v-0.5c0-1.5,0.4-2.6,1.3-3.4c0.9-0.8,2.1-1.2,3.7-1.2c1.6,0,2.8,0.4,3.6,1.2s1.3,1.9,1.3,3.4v0.8h-3.4
		v-0.8c0-1-0.5-1.5-1.5-1.5c-1,0-1.5,0.5-1.5,1.5v0.4c0,0.6,0.4,1.1,1.1,1.5L156.9,14.6z"/>
	<path class="st0" d="M41,40.9c0-1.7,0.5-3.1,1.4-4.1c0.9-1,2.2-1.5,3.8-1.5c0.9,0,1.8,0.2,2.5,0.5c0.7,0.3,1.2,0.7,1.4,1
		c0.3,0.3,0.4,0.6,0.6,0.9v-8.3h1.9v27.4h-1.9v-2.3c-0.1,0.3-0.3,0.6-0.6,0.9c-0.3,0.3-0.8,0.6-1.5,1c-0.7,0.3-1.5,0.5-2.5,0.5
		c-1.6,0-2.9-0.5-3.8-1.5c-0.9-1-1.4-2.4-1.4-4.1V40.9z M50.7,40.8c0-1.2-0.4-2.1-1.2-2.7c-0.8-0.7-1.7-1-2.9-1
		c-2.5,0-3.7,1.3-3.7,3.8v10.4c0,2.6,1.2,3.8,3.7,3.8c1.2,0,2.2-0.3,2.9-1s1.2-1.6,1.2-2.8V40.8z"/>
	<path class="st0" d="M60.7,30.6c0,0.8-0.4,1.3-1.3,1.3c-0.8,0-1.3-0.4-1.3-1.3s0.4-1.3,1.3-1.3C60.3,29.4,60.7,29.8,60.7,30.6z
		 M58.4,35.2h1.9v21.7h-1.9V35.2z"/>
	<path class="st0" d="M78.1,35.8c-0.8,0-1.4,0.2-2,0.7c0.9,0.9,1.3,2.2,1.3,3.8v3c0,1.7-0.5,3.1-1.5,4c-1,1-2.6,1.5-4.6,1.5
		c-1.7,0-2.5,0.8-2.5,2.3c0,0.7,0.2,1.2,0.6,1.5c0.4,0.3,1.1,0.5,2.1,0.5h2.3c3.4,0,5.2,1.5,5.2,4.4v0.4c0,3.1-2.2,4.7-6.7,4.7h-1.6
		c-2.4,0-4.3-0.4-5.7-1.1v-1.9c1.6,0.8,3.5,1.3,5.7,1.3h1.5c3.2,0,4.8-1,4.8-2.9v-0.4c0-0.9-0.2-1.6-0.6-2c-0.4-0.4-1.3-0.7-2.6-0.7
		h-2.3c-1.4,0-2.6-0.3-3.3-0.8c-0.8-0.6-1.2-1.4-1.2-2.4V51c0-0.6,0.2-1.2,0.5-1.6c0.4-0.4,0.8-0.7,1.4-0.9
		c-2.5-0.7-3.8-2.4-3.8-5.2v-3c0-1.7,0.5-3.1,1.5-4c1-1,2.6-1.5,4.6-1.5c1.7,0,3.1,0.4,4.2,1.1c0.5-1.4,1.6-2.1,3.3-2.1h0.6v2H78.1z
		 M75.5,40.3c0-1.3-0.3-2.2-1-2.8c-0.7-0.6-1.7-0.9-3.2-0.9c-1.5,0-2.6,0.3-3.2,0.9c-0.7,0.6-1,1.6-1,2.8v3c0,1.3,0.3,2.2,1,2.8
		c0.7,0.6,1.7,0.9,3.2,0.9c1.5,0,2.6-0.3,3.2-0.9c0.7-0.6,1-1.6,1-2.8V40.3z"/>
	<path class="st0" d="M84.9,30.6c0,0.8-0.4,1.3-1.3,1.3c-0.8,0-1.3-0.4-1.3-1.3s0.4-1.3,1.3-1.3C84.5,29.4,84.9,29.8,84.9,30.6z
		 M82.7,35.2h1.9v21.7h-1.9V35.2z"/>
	<path class="st0" d="M87.8,35.2h2.5l0.5-4.4h1.4v4.4h4.9v1.7h-4.9v15c0,1.2,0.2,2,0.7,2.5c0.4,0.5,1.2,0.8,2.2,0.8
		c0.9,0,1.7-0.2,2.5-0.5v1.8c-0.6,0.3-1.5,0.4-2.5,0.4c-3.2,0-4.8-1.7-4.8-5v-15h-2.5V35.2z"/>
	<path class="st0" d="M100,40.4c0-1.7,0.5-3.1,1.5-4.1c1-1,2.5-1.5,4.5-1.5c2,0,3.5,0.5,4.5,1.5c1,1,1.5,2.4,1.5,4.1v16.5H110v-2.5
		c-0.6,1.8-2.2,2.7-4.8,2.7c-3.7,0-5.5-1.7-5.5-5.2v-1c0-2.5,1.5-4.3,4.5-5.2l5.8-1.7v-3.6c0-1.3-0.3-2.2-0.9-2.9
		c-0.6-0.6-1.7-1-3.1-1c-1.5,0-2.5,0.3-3.1,1c-0.6,0.6-0.9,1.6-0.9,2.9v1.1H100V40.4z M101.6,51.9c0,2.3,1.3,3.5,3.8,3.5
		c1.6,0,2.8-0.4,3.5-1.2c0.7-0.8,1.1-1.7,1.1-2.9v-5.5l-5.2,1.5c-1.2,0.4-2.1,0.8-2.5,1.4c-0.5,0.6-0.7,1.3-0.7,2.2V51.9z"/>
	<path class="st0" d="M117.5,29.4h1.9v27.4h-1.9V29.4z"/>
	<path class="st0" d="M124.8,40.7c0-1.8,0.5-3.2,1.5-4.3c1-1.1,2.5-1.6,4.5-1.6c2,0,3.5,0.5,4.5,1.6c1,1.1,1.5,2.5,1.5,4.3v5.8
		h-10.1v4.8c0,2.8,1.4,4.2,4.1,4.2c2.7,0,4.1-1.4,4.1-4.2V50h1.9v1.3c0,1.8-0.5,3.2-1.5,4.3c-1,1.1-2.5,1.6-4.5,1.6
		c-2,0-3.5-0.5-4.5-1.6c-1-1.1-1.5-2.5-1.5-4.3V40.7z M134.8,44.8v-4.1c0-2.8-1.4-4.2-4.1-4.2c-2.7,0-4.1,1.4-4.1,4.2v4.1H134.8z"/>
	<path class="st0" d="M149.1,46c2.5,1,3.7,2.6,3.7,4.8v0.8c0,3.7-2,5.5-6,5.5c-3.9,0-5.8-1.9-5.8-5.6v-0.8h1.9v0.8
		c0,1.3,0.3,2.3,0.8,2.9c0.6,0.6,1.6,0.9,3,0.9c1.5,0,2.5-0.3,3.1-0.9c0.6-0.6,0.9-1.6,0.9-2.8V51c0-0.8-0.2-1.5-0.6-2
		s-1.1-1-2.1-1.4l-3.6-1.5c-2.3-0.9-3.4-2.6-3.4-5.1v-0.7c0-3.7,1.9-5.5,5.7-5.5c3.8,0,5.7,1.9,5.7,5.6v1h-1.9v-1
		c0-1.3-0.3-2.3-0.8-2.9s-1.5-0.9-3-0.9c-1.5,0-2.5,0.3-3,0.9c-0.6,0.6-0.8,1.6-0.8,2.9v0.5c0,1,0.2,1.7,0.6,2.3c0.4,0.6,1,1,2,1.4
		L149.1,46z"/>
</g>
</svg>
